0
SECTION
2
HEADER
9
$INSUNITS
70
4
9
$ACADVER
1
AC1014
9
$HANDSEED
5
FFFF
0
ENDSEC
0
SECTION
2
TABLES
0
TABLE
2
VPORT
5
8
100
AcDbSymbolTable
0
ENDTAB
0
TABLE
2
LTYPE
5
5
100
AcDbSymbolTable
0
LTYPE
5
14
100
AcDbSymbolTableRecord
100
AcDbLinetypeTableRecord
2
BYBLOCK
70
0
0
LTYPE
5
15
100
AcDbSymbolTableRecord
100
AcDbLinetypeTableRecord
2
BYLAYER
70
0
0
ENDTAB
0
TABLE
2
LAYER
5
2
100
AcDbSymbolTable
70
2
0
LAYER
5
50
100
AcDbSymbolTableRecord
100
AcDbLayerTableRecord
2
0
70
0
6
CONTINUOUS
0
ENDTAB
0
TABLE
2
STYLE
5
3
100
AcDbSymbolTable
70
1
0
STYLE
5
11
100
AcDbSymbolTableRecord
100
AcDbTextStyleTableRecord
2
STANDARD
70
0
0
ENDTAB
0
TABLE
2
VIEW
5
6
100
AcDbSymbolTable
70
0
0
ENDTAB
0
TABLE
2
UCS
5
7
100
AcDbSymbolTable
70
0
0
ENDTAB
0
TABLE
2
APPID
5
9
100
AcDbSymbolTable
70
2
0
APPID
5
12
100
AcDbSymbolTableRecord
100
AcDbRegAppTableRecord
2
ACAD
70
0
0
ENDTAB
0
TABLE
2
DIMSTYLE
5
A
100
AcDbSymbolTable
70
1
0
ENDTAB
0
TABLE
2
BLOCK_RECORD
5
1
100
AcDbSymbolTable
70
1
0
BLOCK_RECORD
5
1F
100
AcDbSymbolTableRecord
100
AcDbBlockTableRecord
2
*MODEL_SPACE
0
BLOCK_RECORD
5
1B
100
AcDbSymbolTableRecord
100
AcDbBlockTableRecord
2
*PAPER_SPACE
0
ENDTAB
0
ENDSEC
0
SECTION
2
BLOCKS
0
BLOCK
5
20
100
AcDbEntity
100
AcDbBlockBegin
2
*MODEL_SPACE
0
ENDBLK
5
21
100
AcDbEntity
100
AcDbBlockEnd
0
BLOCK
5
1C
100
AcDbEntity
100
AcDbBlockBegin
2
*PAPER_SPACE
0
ENDBLK
5
1D
100
AcDbEntity
100
AcDbBlockEnd
0
ENDSEC
0
SECTION
2
ENTITIES
0
LWPOLYLINE
5
100
100
AcDbEntity
8
0
100
AcDbPolyline
90
62
70
1
43
0.0
10
50
20
-25
10
50
20
45
10
55
20
45
10
55
20
49.999999705469065
10
65
20
49.999999705469065
10
70.000000054298994
20
49.999999690660253
10
70.000000039490175
20
45.000000745058692
10
74.000001102685914
20
45.000000745058671
10
74.000001102685914
20
25.000000745058671
10
86.0000011026859
20
25.000000745058671
10
86.0000011026859
20
45.000000745058657
10
90
20
45.000000745059296
10
90
20
50.00000094723233
10
105.00000156462194
20
50.00000094723233
10
105.00000156462194
20
44.999999705469094
10
115.00000171363352
20
44.999999705469087
10
115.00000171363352
20
50.000000450527118
10
129.99999998203603
20
49.999999705469065
10
129.99999998203603
20
44.999999705469079
10
134.00000199675534
20
44.999999705469094
10
134.00000199675534
20
24.99999970546909
10
146.00000217556953
20
24.99999970546909
10
146
20
44.999999705469065
10
150
20
44.999999705469065
10
146
20
44.999999705469079
10
150
20
44.999999705469065
10
150
20
50.000000915854145
10
155
20
50.00000094723238
10
165
20
50.00000094723238
10
165
20
44.999999705469087
10
170
20
44.999999705469087
10
165
20
44.999999705469087
10
165
20
50.00000094723238
10
165
20
44.999999705469087
10
170
20
44.999999705469087
10
170
20
-25
10
170
20
44.999999705469087
10
170
20
-25
10
165
20
-25
10
165
20
-30
10
150
20
-30
10
150
20
-25
10
146.00000217556953
20
-25
10
146.00000217556953
20
-5.1077778818972597
10
134.0000019967556
20
-5.1077778818972597
10
134.0000019967556
20
-25
10
130
20
-25
10
130
20
-30
10
115.00000171363354
20
-30
10
115.00000171363354
20
-25
10
105.00000156462193
20
-25
10
105.00000156462193
20
-30
10
90
20
-30
10
90
20
-25
10
86.000001102685928
20
-25
10
86.000001102685928
20
-7.0433935446904261
10
74.000001102685928
20
-7.0433935446904261
10
74.000001102685928
20
-25
10
70
20
-25
10
70
20
-30
10
55
20
-30
10
55
20
-25
0
LINE
5
101
100
AcDbEntity
8
0
100
AcDbLine
10
55
20
49.999999705469065
30
0
11
65
21
49.999999705469065
31
0
0
LINE
5
102
100
AcDbEntity
8
0
100
AcDbLine
10
50
20
30
30
0
11
50
21
45
31
0
0
LINE
5
103
100
AcDbEntity
8
0
100
AcDbLine
10
90
20
50.000000170111399
30
0
11
90
21
45.000000745059296
31
0
0
LINE
5
104
100
AcDbEntity
8
0
100
AcDbLine
10
129.99999998203603
20
49.999999705469065
30
0
11
115.00000171363352
21
50.000000450527118
31
0
0
LINE
5
105
100
AcDbEntity
8
0
100
AcDbLine
10
129.99999998203603
20
50
30
0
11
129.99999998203603
21
44.999999705469079
31
0
0
LINE
5
106
100
AcDbEntity
8
0
100
AcDbLine
10
155
20
50.00000094723238
30
0
11
165
21
50.00000094723238
31
0
0
LINE
5
107
100
AcDbEntity
8
0
100
AcDbLine
10
150
20
44.999999705469065
30
0
11
150
21
49.999999705469065
31
0
0
LINE
5
108
100
AcDbEntity
8
0
100
AcDbLine
10
134.00000199675534
20
44.999999705469094
30
0
11
134
21
30
31
0
0
LINE
5
109
100
AcDbEntity
8
0
100
AcDbLine
10
146
20
30
30
0
11
146
21
44.999999705469079
31
0
0
LINE
5
110
100
AcDbEntity
8
0
100
AcDbLine
10
146.00000217556953
20
45.000000670552254
30
0
11
146.00000217556953
21
24.99999970546909
31
0
0
LINE
5
111
100
AcDbEntity
8
0
100
AcDbLine
10
90
20
50.000000170111399
30
0
11
105.00000156462194
21
50.00000094723233
31
0
0
CIRCLE
5
112
100
AcDbEntity
8
0
100
AcDbCircle
10
55
20
40
30
0
40
0.99999999999999822
210
0
220
0
230
1
0
CIRCLE
5
113
100
AcDbEntity
8
0
100
AcDbCircle
10
70
20
40
30
0
40
0.99999999999999645
210
0
220
0
230
1
0
CIRCLE
5
114
100
AcDbEntity
8
0
100
AcDbCircle
10
90.000001341104507
20
40.000000596046448
30
0
40
0.99999999999999756
210
0
220
0
230
1
0
CIRCLE
5
115
100
AcDbEntity
8
0
100
AcDbCircle
10
130
20
40
30
0
40
1.0000000000000004
210
0
220
0
230
1
0
CIRCLE
5
116
100
AcDbEntity
8
0
100
AcDbCircle
10
150
20
40
30
0
40
1.0000000000000013
210
0
220
0
230
1
0
CIRCLE
5
117
100
AcDbEntity
8
0
100
AcDbCircle
10
165
20
40
30
0
40
0.99999999999999867
210
0
220
0
230
1
0
CIRCLE
5
118
100
AcDbEntity
8
0
100
AcDbCircle
10
110
20
40
30
0
40
0.99999999999999645
210
0
220
0
230
1
0
CIRCLE
5
119
100
AcDbEntity
8
0
100
AcDbCircle
10
55
20
-20
30
0
40
0.99999999999999911
210
0
220
0
230
1
0
CIRCLE
5
120
100
AcDbEntity
8
0
100
AcDbCircle
10
70
20
-20
30
0
40
1.0000000000000004
210
0
220
0
230
1
0
CIRCLE
5
121
100
AcDbEntity
8
0
100
AcDbCircle
10
90.000001341104507
20
-20.000000298023224
30
0
40
1
210
0
220
0
230
1
0
CIRCLE
5
122
100
AcDbEntity
8
0
100
AcDbCircle
10
130
20
-20
30
0
40
1.0000000000000029
210
0
220
0
230
1
0
CIRCLE
5
123
100
AcDbEntity
8
0
100
AcDbCircle
10
150
20
-20
30
0
40
1.0000000000000027
210
0
220
0
230
1
0
CIRCLE
5
124
100
AcDbEntity
8
0
100
AcDbCircle
10
165
20
-20
30
0
40
0.99999999999999845
210
0
220
0
230
1
0
LWPOLYLINE
5
125
100
AcDbEntity
8
0
100
AcDbPolyline
90
4
70
1
43
0.0
10
55
20
15
10
78
20
15
10
78
20
2.9999999999999982
10
55
20
2.9999999999999982
0
CIRCLE
5
126
100
AcDbEntity
8
0
100
AcDbCircle
10
125.00000186264515
20
-5.000000074505806
30
0
40
0.99999999999999878
210
0
220
0
230
1
0
CIRCLE
5
127
100
AcDbEntity
8
0
100
AcDbCircle
10
125.00000186264515
20
25.00000037252903
30
0
40
0.99999999999999645
210
0
220
0
230
1
0
CIRCLE
5
128
100
AcDbEntity
8
0
100
AcDbCircle
10
110.00000163912773
20
25.00000037252903
30
0
40
1.0000000000000011
210
0
220
0
230
1
0
CIRCLE
5
129
100
AcDbEntity
8
0
100
AcDbCircle
10
110.00000163912773
20
-20.000000298023224
30
0
40
1.0000000000000009
210
0
220
0
230
1
0
CIRCLE
5
130
100
AcDbEntity
8
0
100
AcDbCircle
10
80.499998200684786
20
9
30
0
40
1
210
0
220
0
230
1
0
CIRCLE
5
131
100
AcDbEntity
8
0
100
AcDbCircle
10
52.500000782310963
20
9
30
0
40
0.99999999999999856
210
0
220
0
230
1
0
CIRCLE
5
132
100
AcDbEntity
8
0
100
AcDbCircle
10
110.00000163912773
20
-5.000000074505806
30
0
40
1.0000000000000009
210
0
220
0
230
1
0
CIRCLE
5
133
100
AcDbEntity
8
0
100
AcDbCircle
10
95.000001415610313
20
25.00000037252903
30
0
40
1.0000000000000009
210
0
220
0
230
1
0
CIRCLE
5
134
100
AcDbEntity
8
0
100
AcDbCircle
10
95.000001415610313
20
-5.000000074505806
30
0
40
0.99999999999999645
210
0
220
0
230
1
0
LINE
5
135
100
AcDbEntity
8
0
100
AcDbLine
10
170
20
-25
30
0
11
170
21
44.999999705469087
31
0
0
LINE
5
136
100
AcDbEntity
8
0
100
AcDbLine
10
150
20
50.000000915854145
30
0
11
150
21
44.999999705469065
31
0
0
LWPOLYLINE
5
137
100
AcDbEntity
8
0
100
AcDbPolyline
90
16
70
1
43
0.0
10
50
20
-45.000012015046515
10
50
20
-65
42
0.41421354629355212
10
54.999999725505035
20
-69.999999999999972
10
74.000001102685928
20
-70.000001043081284
42
0.33333342522382636
10
86.000001102685928
20
-70
10
134.0000019967556
20
-70
42
0.33333350718021121
10
146.00000217556953
20
-70
10
165
20
-70
42
0.41421356237309453
10
170
20
-65
10
170
20
-45.000006313386358
42
0.41421356237309293
10
165.00000000000003
20
-40.000006313386358
10
146.00000217556953
20
-40.000006313386351
42
0.33333352391142518
10
134.0000019967556
20
-40.000006313386351
10
86.000001102685928
20
-40.000006313386351
42
0.33333352887848239
10
74.000001102686142
20
-40.000006313386351
10
55
20
-40.000006313386351
42
0.41421306069153069
0
LWPOLYLINE
5
138
100
AcDbEntity
8
0
100
AcDbPolyline
90
4
70
1
43
0.0
10
165
20
-45
10
150
20
-45
10
150
20
-48
10
165
20
-48
0
LWPOLYLINE
5
139
100
AcDbEntity
8
0
100
AcDbPolyline
90
4
70
1
43
0.0
10
130
20
-45
10
115
20
-45
10
115
20
-48
10
130
20
-48
0
LWPOLYLINE
5
140
100
AcDbEntity
8
0
100
AcDbPolyline
90
4
70
1
43
0.0
10
105
20
-45
10
90
20
-45
10
90
20
-48
10
105
20
-48
0
LWPOLYLINE
5
141
100
AcDbEntity
8
0
100
AcDbPolyline
90
4
70
1
43
0.0
10
70
20
-45
10
55
20
-45
10
55
20
-48
10
70
20
-48
0
LWPOLYLINE
5
142
100
AcDbEntity
8
0
100
AcDbPolyline
90
4
70
1
43
0.0
10
165
20
-65
10
150
20
-65
10
150
20
-62
10
165
20
-62
0
LINE
5
143
100
AcDbEntity
8
0
100
AcDbLine
10
150
20
-65
30
0
11
150
21
-62
31
0
0
LWPOLYLINE
5
144
100
AcDbEntity
8
0
100
AcDbPolyline
90
4
70
1
43
0.0
10
130
20
-65
10
115
20
-65
10
115
20
-62
10
130
20
-62
0
LWPOLYLINE
5
145
100
AcDbEntity
8
0
100
AcDbPolyline
90
4
70
1
43
0.0
10
105
20
-65
10
90
20
-65
10
90
20
-62
10
105
20
-62
0
LWPOLYLINE
5
146
100
AcDbEntity
8
0
100
AcDbPolyline
90
4
70
1
43
0.0
10
70
20
-65
10
55
20
-65
10
55
20
-62
10
70
20
-62
0
LWPOLYLINE
5
147
100
AcDbEntity
8
0
100
AcDbPolyline
90
4
70
1
43
0.0
10
74.000001102685928
20
-44.000000655651093
10
74.000001102685928
20
-67.000000655651093
10
86.000001102685928
20
-67.000000655651093
10
86.000001102685928
20
-44.000000655651093
0
LINE
5
148
100
AcDbEntity
8
0
100
AcDbLine
10
86.000001102685928
20
-44.000000655651093
30
0
11
86.000001102685928
21
-67.000000655651093
31
0
0
LINE
5
149
100
AcDbEntity
8
0
100
AcDbLine
10
74.000001102685928
20
-67.000000655651093
30
0
11
74.000001102685928
21
-44.000000655651093
31
0
0
LWPOLYLINE
5
150
100
AcDbEntity
8
0
100
AcDbPolyline
90
4
70
1
43
0.0
10
134.0000019967556
20
-44.000000655651093
10
146.00000217556953
20
-44.000000655651093
10
146.00000217556953
20
-67.000000976957381
10
134.0000019967556
20
-67.000000912696123
0
LINE
5
151
100
AcDbEntity
8
0
100
AcDbLine
10
150
20
-44.000000655651093
30
0
11
150
21
-48
31
0
0
LINE
5
152
100
AcDbEntity
8
0
100
AcDbLine
10
51.5
20
-100
30
0
11
108.5
21
-100
31
0
0
LINE
5
153
100
AcDbEntity
8
0
100
AcDbLine
10
108.5
20
-125
30
0
11
51.5
21
-125
31
0
0
LINE
5
154
100
AcDbEntity
8
0
100
AcDbLine
10
50
20
-123.5
30
0
11
50
21
-101.5
31
0
0
LWPOLYLINE
5
155
100
AcDbEntity
8
0
100
AcDbPolyline
90
4
70
1
43
0.0
10
57.650000819563871
20
-106.50000158697367
10
57.650000819563871
20
-118.50000158697367
10
80.650000819563871
20
-118.50000158697367
10
80.650000819563871
20
-106.50000158697367
0
LINE
5
156
100
AcDbEntity
8
0
100
AcDbLine
10
57.650000819563871
20
-118.50000158697367
30
0
11
57.650000819563871
21
-106.50000158697367
31
0
0
CIRCLE
5
157
100
AcDbEntity
8
0
100
AcDbCircle
10
55.00000081956388
20
-112.50000158697367
30
0
40
1.1000000000000012
210
0
220
0
230
1
0
CIRCLE
5
158
100
AcDbEntity
8
0
100
AcDbCircle
10
83.300000819563877
20
-112.50000158697367
30
0
40
1.1000000000000012
210
0
220
0
230
1
0
ARC
5
159
100
AcDbEntity
8
0
100
AcDbCircle
10
51.500000000000014
20
-101.5
30
0
40
1.5000000000000036
210
0
220
-0
230
1
100
AcDbArc
50
90.00000000000054
51
180
0
ARC
5
160
100
AcDbEntity
8
0
100
AcDbCircle
10
51.500000000000014
20
-123.5
30
0
40
1.5000000000000124
210
0
220
0
230
1
100
AcDbArc
50
180
51
269.99999999999943
0
CIRCLE
5
161
100
AcDbEntity
8
0
100
AcDbCircle
10
80.000001102685928
20
-69.650000655651098
30
0
40
1.099999999999999
210
0
220
0
230
1
0
CIRCLE
5
162
100
AcDbEntity
8
0
100
AcDbCircle
10
80.000001102685928
20
-41.350000655651094
30
0
40
1.0999999999999976
210
0
220
0
230
1
0
CIRCLE
5
163
100
AcDbEntity
8
0
100
AcDbCircle
10
140.00000208616257
20
-41.350000655651094
30
0
40
1.1000000000000036
210
0
220
0
230
1
0
CIRCLE
5
164
100
AcDbEntity
8
0
100
AcDbCircle
10
140.00000207197155
20
-69.650000944826743
30
0
40
1.0999999999999963
210
0
220
0
230
1
0
CIRCLE
5
165
100
AcDbEntity
8
0
100
AcDbCircle
10
116
20
-112.5
30
0
40
3.4999999999999973
210
0
220
0
230
1
0
CIRCLE
5
166
100
AcDbEntity
8
0
100
AcDbCircle
10
103.50000000000003
20
-112.5
30
0
40
0.25000000000000488
210
0
220
0
230
1
0
CIRCLE
5
167
100
AcDbEntity
8
0
100
AcDbCircle
10
109.50000000000001
20
-112.5
30
0
40
0.50000000000000477
210
0
220
0
230
1
0
CIRCLE
5
168
100
AcDbEntity
8
0
100
AcDbCircle
10
107.50000000000001
20
-112.5
30
0
40
0.49999999999999034
210
0
220
0
230
1
0
CIRCLE
5
169
100
AcDbEntity
8
0
100
AcDbCircle
10
105.50000000000003
20
-112.5
30
0
40
0.50000000000000178
210
0
220
0
230
1
0
CIRCLE
5
170
100
AcDbEntity
8
0
100
AcDbCircle
10
111.5
20
-112.5
30
0
40
0.50000000000001177
210
0
220
0
230
1
0
LWPOLYLINE
5
171
100
AcDbEntity
8
0
100
AcDbPolyline
90
7
70
1
43
0.0
10
55.000000819563866
20
-135.00000201165676
10
88.5
20
-135
42
-0.41421356237309503
10
90
20
-136.5
10
90
20
-158.5
42
-0.41421356237309503
10
88.5
20
-160
10
55.000000819563866
20
-160.00000238418579
42
-0.23606797749978972
10
50.00000074505806
20
-145.00000216066837
42
-0.32046505340852527
0
CIRCLE
5
172
100
AcDbEntity
8
0
100
AcDbCircle
10
105.50000000000003
20
-112.5
30
0
40
0.50000000000000178
210
0
220
0
230
1
0
CIRCLE
5
173
100
AcDbEntity
8
0
100
AcDbCircle
10
109.50000000000001
20
-112.5
30
0
40
0.50000000000000477
210
0
220
0
230
1
0
CIRCLE
5
174
100
AcDbEntity
8
0
100
AcDbCircle
10
103.50000000000003
20
-112.5
30
0
40
0.25000000000000488
210
0
220
0
230
1
0
CIRCLE
5
175
100
AcDbEntity
8
0
100
AcDbCircle
10
107.50000000000001
20
-112.5
30
0
40
0.49999999999999034
210
0
220
0
230
1
0
CIRCLE
5
176
100
AcDbEntity
8
0
100
AcDbCircle
10
116
20
-112.5
30
0
40
3.4999999999999973
210
0
220
0
230
1
0
CIRCLE
5
177
100
AcDbEntity
8
0
100
AcDbCircle
10
111.5
20
-112.5
30
0
40
0.50000000000001177
210
0
220
0
230
1
0
CIRCLE
5
178
100
AcDbEntity
8
0
100
AcDbCircle
10
76.000000000000014
20
-147.5
30
0
40
0.50000000000000477
210
0
220
0
230
1
0
CIRCLE
5
179
100
AcDbEntity
8
0
100
AcDbCircle
10
70.000000000000028
20
-147.5
30
0
40
0.25000000000000488
210
0
220
0
230
1
0
CIRCLE
5
180
100
AcDbEntity
8
0
100
AcDbCircle
10
74.000000000000028
20
-147.5
30
0
40
0.49999999999999034
210
0
220
0
230
1
0
CIRCLE
5
181
100
AcDbEntity
8
0
100
AcDbCircle
10
82.5
20
-147.5
30
0
40
3.4999999999999973
210
0
220
0
230
1
0
CIRCLE
5
182
100
AcDbEntity
8
0
100
AcDbCircle
10
70.000000000000028
20
-147.5
30
0
40
0.25000000000000488
210
0
220
0
230
1
0
CIRCLE
5
183
100
AcDbEntity
8
0
100
AcDbCircle
10
74.000000000000028
20
-147.5
30
0
40
0.49999999999999034
210
0
220
0
230
1
0
CIRCLE
5
184
100
AcDbEntity
8
0
100
AcDbCircle
10
78
20
-147.5
30
0
40
0.50000000000001177
210
0
220
0
230
1
0
CIRCLE
5
185
100
AcDbEntity
8
0
100
AcDbCircle
10
76.000000000000014
20
-147.5
30
0
40
0.50000000000000477
210
0
220
0
230
1
0
CIRCLE
5
186
100
AcDbEntity
8
0
100
AcDbCircle
10
72.000000000000028
20
-147.5
30
0
40
0.50000000000000178
210
0
220
0
230
1
0
CIRCLE
5
187
100
AcDbEntity
8
0
100
AcDbCircle
10
72.000000000000028
20
-147.5
30
0
40
0.50000000000000178
210
0
220
0
230
1
0
CIRCLE
5
188
100
AcDbEntity
8
0
100
AcDbCircle
10
82.5
20
-147.5
30
0
40
3.4999999999999973
210
0
220
0
230
1
0
CIRCLE
5
189
100
AcDbEntity
8
0
100
AcDbCircle
10
78
20
-147.5
30
0
40
0.50000000000001177
210
0
220
0
230
1
0
LINE
5
190
100
AcDbEntity
8
0
100
AcDbLine
10
108.5
20
-100
30
0
11
122.5
21
-100
31
0
0
LINE
5
191
100
AcDbEntity
8
0
100
AcDbLine
10
123.5
20
-101
30
0
11
123.5
21
-124.00000186264515
31
0
0
LINE
5
192
100
AcDbEntity
8
0
100
AcDbLine
10
122.5
20
-125.00000186264515
30
0
11
108.00000160932541
21
-125.00000186264515
31
0
0
CIRCLE
5
193
100
AcDbEntity
8
0
100
AcDbCircle
10
195.50000000000006
20
-112.5
30
0
40
0.50000000000000178
210
0
220
0
230
1
0
LWPOLYLINE
5
194
100
AcDbEntity
8
0
100
AcDbPolyline
90
4
70
1
43
0.0
10
147.65000081956387
20
-106.50000158697367
10
170.65000081956387
20
-106.50000158697367
10
170.65000081956387
20
-118.50000158697367
10
147.65000081956387
20
-118.50000158697367
0
CIRCLE
5
195
100
AcDbEntity
8
0
100
AcDbCircle
10
197.5
20
-112.5
30
0
40
0.49999999999999034
210
0
220
0
230
1
0
CIRCLE
5
196
100
AcDbEntity
8
0
100
AcDbCircle
10
173.30000081956388
20
-112.50000158697367
30
0
40
1.1000000000000012
210
0
220
0
230
1
0
CIRCLE
5
197
100
AcDbEntity
8
0
100
AcDbCircle
10
197.5
20
-112.5
30
0
40
0.49999999999999034
210
0
220
0
230
1
0
CIRCLE
5
198
100
AcDbEntity
8
0
100
AcDbCircle
10
199.50000000000003
20
-112.5
30
0
40
0.50000000000000477
210
0
220
0
230
1
0
LINE
5
199
100
AcDbEntity
8
0
100
AcDbLine
10
212.5
20
-125.00000186264515
30
0
11
198.00000160932541
21
-125.00000186264515
31
0
0
LINE
5
200
100
AcDbEntity
8
0
100
AcDbLine
10
141.5
20
-100
30
0
11
198.5
21
-100
31
0
0
CIRCLE
5
201
100
AcDbEntity
8
0
100
AcDbCircle
10
193.5
20
-112.5
30
0
40
0.25000000000000488
210
0
220
0
230
1
0
CIRCLE
5
202
100
AcDbEntity
8
0
100
AcDbCircle
10
145.00000081956389
20
-112.50000158697367
30
0
40
1.1000000000000012
210
0
220
0
230
1
0
CIRCLE
5
203
100
AcDbEntity
8
0
100
AcDbCircle
10
199.50000000000003
20
-112.5
30
0
40
0.50000000000000477
210
0
220
0
230
1
0
ARC
5
204
100
AcDbEntity
8
0
100
AcDbCircle
10
141.50000000000003
20
-101.5
30
0
40
1.5000000000000036
210
0
220
0
230
1
100
AcDbArc
50
90.000000000001094
51
180
0
CIRCLE
5
205
100
AcDbEntity
8
0
100
AcDbCircle
10
201.5
20
-112.5
30
0
40
0.50000000000001177
210
0
220
0
230
1
0
CIRCLE
5
206
100
AcDbEntity
8
0
100
AcDbCircle
10
195.50000000000006
20
-112.5
30
0
40
0.50000000000000178
210
0
220
0
230
1
0
LINE
5
207
100
AcDbEntity
8
0
100
AcDbLine
10
140
20
-123.5
30
0
11
140
21
-101.5
31
0
0
CIRCLE
5
208
100
AcDbEntity
8
0
100
AcDbCircle
10
206
20
-112.5
30
0
40
3.4999999999999973
210
0
220
0
230
1
0
LINE
5
209
100
AcDbEntity
8
0
100
AcDbLine
10
147.65000081956387
20
-118.50000158697367
30
0
11
147.65000081956387
21
-106.50000158697367
31
0
0
LINE
5
210
100
AcDbEntity
8
0
100
AcDbLine
10
198.5
20
-125
30
0
11
141.5
21
-125
31
0
0
LWPOLYLINE
5
211
100
AcDbEntity
8
0
100
AcDbPolyline
90
7
70
1
43
0.0
10
178.5
20
-160
10
145.00000081956384
20
-160.00000238418579
42
-0.23606797749978972
10
140.00000074505806
20
-145.0000021606684
42
-0.32046505340852538
10
145.00000081956387
20
-135.00000201165676
10
178.5
20
-135.00000000000003
42
-0.41421356237309503
10
180
20
-136.5
10
180
20
-158.5
42
-0.41421356237309503
0
ARC
5
212
100
AcDbEntity
8
0
100
AcDbCircle
10
141.50000000000003
20
-123.5
30
0
40
1.5000000000000213
210
0
220
0
230
1
100
AcDbArc
50
180
51
269.99999999999886
0
CIRCLE
5
213
100
AcDbEntity
8
0
100
AcDbCircle
10
172.5
20
-147.5
30
0
40
3.4999999999999973
210
0
220
0
230
1
0
CIRCLE
5
214
100
AcDbEntity
8
0
100
AcDbCircle
10
162.00000000000003
20
-147.5
30
0
40
0.50000000000000178
210
0
220
0
230
1
0
CIRCLE
5
215
100
AcDbEntity
8
0
100
AcDbCircle
10
168
20
-147.5
30
0
40
0.50000000000001177
210
0
220
0
230
1
0
CIRCLE
5
216
100
AcDbEntity
8
0
100
AcDbCircle
10
162.00000000000003
20
-147.5
30
0
40
0.50000000000000178
210
0
220
0
230
1
0
LINE
5
217
100
AcDbEntity
8
0
100
AcDbLine
10
213.5
20
-101
30
0
11
213.5
21
-124.00000186264515
31
0
0
CIRCLE
5
218
100
AcDbEntity
8
0
100
AcDbCircle
10
164.00000000000003
20
-147.5
30
0
40
0.49999999999999034
210
0
220
0
230
1
0
LINE
5
219
100
AcDbEntity
8
0
100
AcDbLine
10
198.5
20
-100
30
0
11
212.5
21
-100
31
0
0
CIRCLE
5
220
100
AcDbEntity
8
0
100
AcDbCircle
10
160.00000000000003
20
-147.5
30
0
40
0.25000000000000488
210
0
220
0
230
1
0
CIRCLE
5
221
100
AcDbEntity
8
0
100
AcDbCircle
10
193.5
20
-112.5
30
0
40
0.25000000000000488
210
0
220
0
230
1
0
CIRCLE
5
222
100
AcDbEntity
8
0
100
AcDbCircle
10
206
20
-112.5
30
0
40
3.4999999999999973
210
0
220
0
230
1
0
CIRCLE
5
223
100
AcDbEntity
8
0
100
AcDbCircle
10
160.00000000000003
20
-147.5
30
0
40
0.25000000000000488
210
0
220
0
230
1
0
CIRCLE
5
224
100
AcDbEntity
8
0
100
AcDbCircle
10
164.00000000000003
20
-147.5
30
0
40
0.49999999999999034
210
0
220
0
230
1
0
CIRCLE
5
225
100
AcDbEntity
8
0
100
AcDbCircle
10
201.5
20
-112.5
30
0
40
0.50000000000001177
210
0
220
0
230
1
0
CIRCLE
5
226
100
AcDbEntity
8
0
100
AcDbCircle
10
166
20
-147.5
30
0
40
0.50000000000000477
210
0
220
0
230
1
0
CIRCLE
5
227
100
AcDbEntity
8
0
100
AcDbCircle
10
168
20
-147.5
30
0
40
0.50000000000001177
210
0
220
0
230
1
0
CIRCLE
5
228
100
AcDbEntity
8
0
100
AcDbCircle
10
172.5
20
-147.5
30
0
40
3.4999999999999973
210
0
220
0
230
1
0
CIRCLE
5
229
100
AcDbEntity
8
0
100
AcDbCircle
10
166
20
-147.5
30
0
40
0.50000000000000477
210
0
220
0
230
1
0
ARC
5
230
100
AcDbEntity
8
0
100
AcDbCircle
10
122.5
20
-101
30
0
40
0.99999999999999645
210
0
220
-0
230
1
100
AcDbArc
50
0
51
90
0
ARC
5
231
100
AcDbEntity
8
0
100
AcDbCircle
10
122.5
20
-124.00000186264515
30
0
40
0.99999999999999645
210
-0
220
0
230
1
100
AcDbArc
50
-90
51
0
0
ARC
5
232
100
AcDbEntity
8
0
100
AcDbCircle
10
212.5
20
-101.00000000000001
30
0
40
1.0000000000000142
210
0
220
-0
230
1
100
AcDbArc
50
0
51
90
0
ARC
5
233
100
AcDbEntity
8
0
100
AcDbCircle
10
212.5
20
-124.00000186264514
30
0
40
1.0000000000000142
210
0
220
0
230
1
100
AcDbArc
50
270
51
360
0
LWPOLYLINE
5
234
100
AcDbEntity
8
0
100
AcDbPolyline
90
2
70
1
43
0.0
10
319.99999998203606
20
49.999999705469065
10
305.00000171363354
20
50.000000450527118
0
LINE
5
235
100
AcDbEntity
8
0
100
AcDbLine
10
298.5
20
-100
30
0
11
312.5
21
-100
31
0
0
LINE
5
236
100
AcDbEntity
8
0
100
AcDbLine
10
320
20
-30
30
0
11
305.00000171363354
21
-30
31
0
0
LINE
5
237
100
AcDbEntity
8
0
100
AcDbLine
10
312.5
20
-125.00000186264515
30
0
11
298.00000160932541
21
-125.00000186264515
31
0
0
LWPOLYLINE
5
238
100
AcDbEntity
8
0
100
AcDbPolyline
90
16
70
1
43
0.0
10
324.0000019967556
20
-40.000006313386351
10
276.00000110268593
20
-40.000006313386351
42
0.33333352887848239
10
264.00000110268616
20
-40.000006313386351
10
245
20
-40.000006313386351
42
0.41421306069153119
10
240.00000143129188
20
-45.000012015046515
10
240
20
-65
42
0.41421354629355317
10
244.99999972550506
20
-69.999999999999972
10
264.00000110268593
20
-70.000001043081284
42
0.33333342522382631
10
276.00000110268593
20
-70
10
324.0000019967556
20
-70
42
0.33333350718021121
10
336.00000217556953
20
-70
10
355
20
-70
42
0.41421356237309453
10
360
20
-65
10
360
20
-45.000006313386358
42
0.41421356237309503
10
355
20
-40.000006313386358
10
336.00000217556953
20
-40.000006313386351
42
0.33333352391142518
0
CIRCLE
5
239
100
AcDbEntity
8
0
100
AcDbCircle
10
299.5
20
-112.5
30
0
40
0.50000000000000477
210
0
220
0
230
1
0
CIRCLE
5
240
100
AcDbEntity
8
0
100
AcDbCircle
10
272.5
20
-147.5
30
0
40
3.4999999999999973
210
0
220
0
230
1
0
LINE
5
241
100
AcDbEntity
8
0
100
AcDbLine
10
340
20
-25
30
0
11
340
21
-30
31
0
0
LWPOLYLINE
5
242
100
AcDbEntity
8
0
100
AcDbPolyline
90
7
70
1
43
0.0
10
280
20
-136.5
42
0.41421356237309503
10
278.5
20
-135
10
245.00000081956387
20
-135.00000201165676
42
0.32046505340852538
10
240.00000074505806
20
-145.00000216066837
42
0.23606797749978978
10
245.00000081956387
20
-160.00000238418579
10
278.5
20
-160
42
0.41421356237309503
10
280
20
-158.5
0
LWPOLYLINE
5
243
100
AcDbEntity
8
0
100
AcDbPolyline
90
4
70
1
43
0.0
10
340
20
-62
10
355
20
-62
10
355
20
-65
10
340
20
-65
0
CIRCLE
5
244
100
AcDbEntity
8
0
100
AcDbCircle
10
301.5
20
-112.5
30
0
40
0.50000000000001177
210
0
220
0
230
1
0
CIRCLE
5
245
100
AcDbEntity
8
0
100
AcDbCircle
10
295.50000000000006
20
-112.5
30
0
40
0.50000000000000178
210
0
220
0
230
1
0
CIRCLE
5
246
100
AcDbEntity
8
0
100
AcDbCircle
10
297.5
20
-112.5
30
0
40
0.49999999999999034
210
0
220
0
230
1
0
CIRCLE
5
247
100
AcDbEntity
8
0
100
AcDbCircle
10
340
20
-20
30
0
40
1.0000000000000027
210
0
220
0
230
1
0
LINE
5
248
100
AcDbEntity
8
0
100
AcDbLine
10
324.0000019967556
20
-5.1077778818972597
30
0
11
336.00000217556953
21
-5.1077778818972597
31
0
0
LWPOLYLINE
5
249
100
AcDbEntity
8
0
100
AcDbPolyline
90
4
70
1
43
0.0
10
247.65000081956387
20
-106.50000158697367
10
270.6500008195639
20
-106.50000158697367
10
270.6500008195639
20
-118.50000158697367
10
247.65000081956387
20
-118.50000158697367
0
CIRCLE
5
250
100
AcDbEntity
8
0
100
AcDbCircle
10
273.30000081956388
20
-112.50000158697367
30
0
40
1.1000000000000012
210
0
220
0
230
1
0
LINE
5
251
100
AcDbEntity
8
0
100
AcDbLine
10
320
20
-25
30
0
11
324.0000019967556
21
-25
31
0
0
LINE
5
252
100
AcDbEntity
8
0
100
AcDbLine
10
355
20
-25
30
0
11
360
21
-25
31
0
0
CIRCLE
5
253
100
AcDbEntity
8
0
100
AcDbCircle
10
297.5
20
-112.5
30
0
40
0.49999999999999034
210
0
220
0
230
1
0
LWPOLYLINE
5
254
100
AcDbEntity
8
0
100
AcDbPolyline
90
4
70
1
43
0.0
10
355
20
-45
10
340
20
-45
10
340
20
-48
10
355
20
-48
0
LINE
5
255
100
AcDbEntity
8
0
100
AcDbLine
10
241.5
20
-100
30
0
11
298.5
21
-100
31
0
0
LINE
5
256
100
AcDbEntity
8
0
100
AcDbLine
10
320
20
-25
30
0
11
320
21
-30
31
0
0
CIRCLE
5
257
100
AcDbEntity
8
0
100
AcDbCircle
10
295.50000000000006
20
-112.5
30
0
40
0.50000000000000178
210
0
220
0
230
1
0
CIRCLE
5
258
100
AcDbEntity
8
0
100
AcDbCircle
10
245.00000081956387
20
-112.50000158697367
30
0
40
1.1000000000000012
210
0
220
0
230
1
0
CIRCLE
5
259
100
AcDbEntity
8
0
100
AcDbCircle
10
301.5
20
-112.5
30
0
40
0.50000000000001177
210
0
220
0
230
1
0
CIRCLE
5
260
100
AcDbEntity
8
0
100
AcDbCircle
10
299.5
20
-112.5
30
0
40
0.50000000000000477
210
0
220
0
230
1
0
CIRCLE
5
261
100
AcDbEntity
8
0
100
AcDbCircle
10
293.5
20
-112.5
30
0
40
0.25000000000000488
210
0
220
0
230
1
0
ARC
5
262
100
AcDbEntity
8
0
100
AcDbCircle
10
241.50000000000003
20
-101.5
30
0
40
1.5000000000000036
210
0
220
0
230
1
100
AcDbArc
50
90.000000000001094
51
180
0
CIRCLE
5
263
100
AcDbEntity
8
0
100
AcDbCircle
10
293.5
20
-112.5
30
0
40
0.25000000000000488
210
0
220
0
230
1
0
CIRCLE
5
264
100
AcDbEntity
8
0
100
AcDbCircle
10
315.00000186264515
20
-5.000000074505806
30
0
40
0.99999999999999878
210
0
220
0
230
1
0
LINE
5
265
100
AcDbEntity
8
0
100
AcDbLine
10
355
20
-25
30
0
11
355
21
-30
31
0
0
CIRCLE
5
266
100
AcDbEntity
8
0
100
AcDbCircle
10
280.00000134110451
20
-20.000000298023224
30
0
40
1
210
0
220
0
230
1
0
LINE
5
267
100
AcDbEntity
8
0
100
AcDbLine
10
340
20
-65
30
0
11
340
21
-62
31
0
0
LWPOLYLINE
5
268
100
AcDbEntity
8
0
100
AcDbPolyline
90
4
70
1
43
0.0
10
305
20
-48
10
320
20
-48
10
320
20
-45
10
305
20
-45
0
LWPOLYLINE
5
269
100
AcDbEntity
8
0
100
AcDbPolyline
90
2
70
1
43
0.0
10
264.00000110268593
20
-44.000000655651093
10
264.00000110268593
20
-67.000000655651093
0
LWPOLYLINE
5
270
100
AcDbEntity
8
0
100
AcDbPolyline
90
4
70
1
43
0.0
10
245
20
2.9999999999999982
10
245
20
15
10
268
20
15
10
268
20
2.9999999999999982
0
LWPOLYLINE
5
271
100
AcDbEntity
8
0
100
AcDbPolyline
90
4
70
1
43
0.0
10
245
20
-45
10
245
20
-48
10
260
20
-48
10
260
20
-45
0
LWPOLYLINE
5
272
100
AcDbEntity
8
0
100
AcDbPolyline
90
4
70
1
43
0.0
10
336.00000217556953
20
-44.000000655651093
10
336.00000217556953
20
-67.000000976957381
10
324.0000019967556
20
-67.000000912696123
10
324.0000019967556
20
-44.000000655651093
0
LINE
5
273
100
AcDbEntity
8
0
100
AcDbLine
10
276.00000110268593
20
-25
30
0
11
280
21
-25
31
0
0
LINE
5
274
100
AcDbEntity
8
0
100
AcDbLine
10
295.00000156462193
20
-25
30
0
11
295.00000156462193
21
-30
31
0
0
LINE
5
275
100
AcDbEntity
8
0
100
AcDbLine
10
264.00000110268593
20
-7.0433935446904261
30
0
11
264.00000110268593
21
-25
31
0
0
CIRCLE
5
276
100
AcDbEntity
8
0
100
AcDbCircle
10
242.50000078231096
20
9
30
0
40
0.99999999999999856
210
0
220
0
230
1
0
CIRCLE
5
277
100
AcDbEntity
8
0
100
AcDbCircle
10
330.00000208616257
20
-41.350000655651094
30
0
40
1.1000000000000036
210
0
220
0
230
1
0
CIRCLE
5
278
100
AcDbEntity
8
0
100
AcDbCircle
10
340
20
40
30
0
40
1.0000000000000013
210
0
220
0
230
1
0
LWPOLYLINE
5
279
100
AcDbEntity
8
0
100
AcDbPolyline
90
4
70
1
43
0.0
10
245
20
-62
10
260
20
-62
10
260
20
-65
10
245
20
-65
0
LINE
5
280
100
AcDbEntity
8
0
100
AcDbLine
10
260
20
-30
30
0
11
245
21
-30
31
0
0
LWPOLYLINE
5
281
100
AcDbEntity
8
0
100
AcDbPolyline
90
4
70
1
43
0.0
10
295
20
-48
10
295
20
-45
10
280
20
-45
10
280
20
-48
0
LWPOLYLINE
5
282
100
AcDbEntity
8
0
100
AcDbPolyline
90
2
70
1
43
0.0
10
276.00000110268593
20
-44.000000655651093
10
276.00000110268593
20
-67.000000655651093
0
CIRCLE
5
283
100
AcDbEntity
8
0
100
AcDbCircle
10
270.49999820068479
20
9
30
0
40
1
210
0
220
0
230
1
0
LINE
5
284
100
AcDbEntity
8
0
100
AcDbLine
10
240
20
-25
30
0
11
240
21
45
31
0
0
CIRCLE
5
285
100
AcDbEntity
8
0
100
AcDbCircle
10
260
20
40
30
0
40
0.99999999999999645
210
0
220
0
230
1
0
LWPOLYLINE
5
286
100
AcDbEntity
8
0
100
AcDbPolyline
90
8
70
1
43
0.0
10
360
20
44.999999705469087
10
355
20
44.999999705469087
10
355
20
50.00000094723238
10
345
20
50.00000094723238
10
355
20
50.00000094723238
10
355
20
44.999999705469087
10
360
20
44.999999705469087
10
360
20
-25
0
LINE
5
287
100
AcDbEntity
8
0
100
AcDbLine
10
336.00000217556953
20
45.000000670552254
30
0
11
336.00000217556953
21
24.99999970546909
31
0
0
LINE
5
288
100
AcDbEntity
8
0
100
AcDbLine
10
340
20
50.000000915854145
30
0
11
340
21
44.999999705469065
31
0
0
CIRCLE
5
289
100
AcDbEntity
8
0
100
AcDbCircle
10
300.00000163912773
20
25.00000037252903
30
0
40
1.0000000000000011
210
0
220
0
230
1
0
LINE
5
290
100
AcDbEntity
8
0
100
AcDbLine
10
240
20
45
30
0
11
245
21
45
31
0
0
LINE
5
291
100
AcDbEntity
8
0
100
AcDbLine
10
264.00000110268593
20
-44.000000655651093
30
0
11
276.00000110268593
21
-44.000000655651093
31
0
0
LINE
5
292
100
AcDbEntity
8
0
100
AcDbLine
10
336
20
44.999999705469065
30
0
11
340
21
44.999999705469065
31
0
0
LINE
5
293
100
AcDbEntity
8
0
100
AcDbLine
10
276.00000110268587
20
45.000000745058657
30
0
11
276.00000110268587
21
25.000000745058671
31
0
0
LINE
5
294
100
AcDbEntity
8
0
100
AcDbLine
10
331.5
20
-100
30
0
11
388.5
21
-100
31
0
0
LINE
5
295
100
AcDbEntity
8
0
100
AcDbLine
10
276.00000110268587
20
25.000000745058671
30
0
11
264.00000110268593
21
25.000000745058671
31
0
0
LINE
5
296
100
AcDbEntity
8
0
100
AcDbLine
10
276.00000110268587
20
45.000000745058657
30
0
11
280
21
45.000000745059296
31
0
0
LINE
5
297
100
AcDbEntity
8
0
100
AcDbLine
10
240
20
30
30
0
11
240
21
45
31
0
0
LINE
5
298
100
AcDbEntity
8
0
100
AcDbLine
10
245
20
45
30
0
11
245
21
49.999999705469065
31
0
0
LWPOLYLINE
5
299
100
AcDbEntity
8
0
100
AcDbPolyline
90
2
70
1
43
0.0
10
245
20
49.999999705469065
10
255
20
49.999999705469065
0
LINE
5
300
100
AcDbEntity
8
0
100
AcDbLine
10
264.00000110268593
20
25.000000745058671
30
0
11
264.00000110268593
21
45.000000745058671
31
0
0
LINE
5
301
100
AcDbEntity
8
0
100
AcDbLine
10
336
20
30
30
0
11
336
21
44.999999705469079
31
0
0
LWPOLYLINE
5
302
100
AcDbEntity
8
0
100
AcDbPolyline
90
4
70
1
43
0.0
10
280
20
50.000000170111399
10
280
20
45.000000745059296
10
280
20
50.00000094723233
10
295.00000156462193
20
50.00000094723233
0
LINE
5
303
100
AcDbEntity
8
0
100
AcDbLine
10
260.00000005429899
20
49.999999690660253
30
0
11
260.0000000394902
21
45.000000745058692
31
0
0
CIRCLE
5
304
100
AcDbEntity
8
0
100
AcDbCircle
10
280.00000134110451
20
40.000000596046448
30
0
40
0.99999999999999756
210
0
220
0
230
1
0
LINE
5
305
100
AcDbEntity
8
0
100
AcDbLine
10
340
20
44.999999705469065
30
0
11
340
21
49.999999705469065
31
0
0
LINE
5
306
100
AcDbEntity
8
0
100
AcDbLine
10
336
20
44.999999705469065
30
0
11
336.00000217556953
21
24.99999970546909
31
0
0
LINE
5
307
100
AcDbEntity
8
0
100
AcDbLine
10
295.00000156462193
20
50.00000094723233
30
0
11
295.00000156462193
21
44.999999705469094
31
0
0
LWPOLYLINE
5
308
100
AcDbEntity
8
0
100
AcDbPolyline
90
4
70
1
43
0.0
10
295
20
-65
10
280
20
-65
10
280
20
-62
10
295
20
-62
0
LINE
5
309
100
AcDbEntity
8
0
100
AcDbLine
10
295.00000156462193
20
44.999999705469094
30
0
11
305.00000171363354
21
44.999999705469087
31
0
0
LINE
5
310
100
AcDbEntity
8
0
100
AcDbLine
10
255
20
49.999999705469065
30
0
11
260.00000005429899
21
49.999999690660253
31
0
0
LWPOLYLINE
5
311
100
AcDbEntity
8
0
100
AcDbPolyline
90
4
70
1
43
0.0
10
320
20
-65
10
305
20
-65
10
305
20
-62
10
320
20
-62
0
LINE
5
312
100
AcDbEntity
8
0
100
AcDbLine
10
340
20
50.000000915854145
30
0
11
345
21
50.00000094723238
31
0
0
LINE
5
313
100
AcDbEntity
8
0
100
AcDbLine
10
319.99999998203606
20
50
30
0
11
319.99999998203606
21
44.999999705469079
31
0
0
LINE
5
314
100
AcDbEntity
8
0
100
AcDbLine
10
245
20
-25
30
0
11
245
21
-30
31
0
0
LINE
5
315
100
AcDbEntity
8
0
100
AcDbLine
10
260.0000000394902
20
45.000000745058692
30
0
11
264.00000110268593
21
45.000000745058671
31
0
0
LINE
5
316
100
AcDbEntity
8
0
100
AcDbLine
10
340
20
-44.000000655651093
30
0
11
340
21
-48
31
0
0
LWPOLYLINE
5
317
100
AcDbEntity
8
0
100
AcDbPolyline
90
2
70
1
43
0.0
10
336
20
44.999999705469079
10
340
20
44.999999705469065
0
LINE
5
318
100
AcDbEntity
8
0
100
AcDbLine
10
305.00000171363354
20
50.000000450527118
30
0
11
305.00000171363354
21
44.999999705469087
31
0
0
LINE
5
319
100
AcDbEntity
8
0
100
AcDbLine
10
355
20
44.999999705469087
30
0
11
355
21
50.00000094723238
31
0
0
CIRCLE
5
320
100
AcDbEntity
8
0
100
AcDbCircle
10
355
20
40
30
0
40
0.99999999999999867
210
0
220
0
230
1
0
CIRCLE
5
321
100
AcDbEntity
8
0
100
AcDbCircle
10
270.00000110268593
20
-69.650000655651098
30
0
40
1.099999999999999
210
0
220
0
230
1
0
CIRCLE
5
322
100
AcDbEntity
8
0
100
AcDbCircle
10
245
20
40
30
0
40
0.99999999999999822
210
0
220
0
230
1
0
CIRCLE
5
323
100
AcDbEntity
8
0
100
AcDbCircle
10
300
20
40
30
0
40
0.99999999999999645
210
0
220
0
230
1
0
CIRCLE
5
324
100
AcDbEntity
8
0
100
AcDbCircle
10
285.00000141561031
20
25.00000037252903
30
0
40
1.0000000000000009
210
0
220
0
230
1
0
LINE
5
325
100
AcDbEntity
8
0
100
AcDbLine
10
336.00000217556953
20
-5.1077778818972597
30
0
11
336.00000217556953
21
-25
31
0
0
CIRCLE
5
326
100
AcDbEntity
8
0
100
AcDbCircle
10
268
20
-147.5
30
0
40
0.50000000000001177
210
0
220
0
230
1
0
CIRCLE
5
327
100
AcDbEntity
8
0
100
AcDbCircle
10
266
20
-147.5
30
0
40
0.50000000000000477
210
0
220
0
230
1
0
CIRCLE
5
328
100
AcDbEntity
8
0
100
AcDbCircle
10
268
20
-147.5
30
0
40
0.50000000000001177
210
0
220
0
230
1
0
CIRCLE
5
329
100
AcDbEntity
8
0
100
AcDbCircle
10
272.5
20
-147.5
30
0
40
3.4999999999999973
210
0
220
0
230
1
0
CIRCLE
5
330
100
AcDbEntity
8
0
100
AcDbCircle
10
355
20
-20
30
0
40
0.99999999999999845
210
0
220
0
230
1
0
LINE
5
331
100
AcDbEntity
8
0
100
AcDbLine
10
336.00000217556953
20
-25
30
0
11
340
21
-25
31
0
0
CIRCLE
5
332
100
AcDbEntity
8
0
100
AcDbCircle
10
266
20
-147.5
30
0
40
0.50000000000000477
210
0
220
0
230
1
0
CIRCLE
5
333
100
AcDbEntity
8
0
100
AcDbCircle
10
264
20
-147.5
30
0
40
0.49999999999999034
210
0
220
0
230
1
0
CIRCLE
5
334
100
AcDbEntity
8
0
100
AcDbCircle
10
262
20
-147.5
30
0
40
0.50000000000000178
210
0
220
0
230
1
0
CIRCLE
5
335
100
AcDbEntity
8
0
100
AcDbCircle
10
260.00000000000006
20
-147.5
30
0
40
0.25000000000000488
210
0
220
0
230
1
0
CIRCLE
5
336
100
AcDbEntity
8
0
100
AcDbCircle
10
262
20
-147.5
30
0
40
0.50000000000000178
210
0
220
0
230
1
0
CIRCLE
5
337
100
AcDbEntity
8
0
100
AcDbCircle
10
260.00000000000006
20
-147.5
30
0
40
0.25000000000000488
210
0
220
0
230
1
0
CIRCLE
5
338
100
AcDbEntity
8
0
100
AcDbCircle
10
264
20
-147.5
30
0
40
0.49999999999999034
210
0
220
0
230
1
0
CIRCLE
5
339
100
AcDbEntity
8
0
100
AcDbCircle
10
320
20
-20
30
0
40
1.0000000000000029
210
0
220
0
230
1
0
LINE
5
340
100
AcDbEntity
8
0
100
AcDbLine
10
355
20
-30
30
0
11
340
21
-30
31
0
0
ARC
5
341
100
AcDbEntity
8
0
100
AcDbCircle
10
241.50000000000003
20
-123.5
30
0
40
1.5000000000000213
210
0
220
0
230
1
100
AcDbArc
50
180
51
269.99999999999886
0
LINE
5
342
100
AcDbEntity
8
0
100
AcDbLine
10
324.0000019967556
20
-5.1077778818972597
30
0
11
324.0000019967556
21
-25
31
0
0
LINE
5
343
100
AcDbEntity
8
0
100
AcDbLine
10
240
20
-123.5
30
0
11
240
21
-101.5
31
0
0
LINE
5
344
100
AcDbEntity
8
0
100
AcDbLine
10
247.65000081956387
20
-106.50000158697367
30
0
11
247.65000081956387
21
-118.50000158697367
31
0
0
LINE
5
345
100
AcDbEntity
8
0
100
AcDbLine
10
298.5
20
-125
30
0
11
241.5
21
-125
31
0
0
LINE
5
346
100
AcDbEntity
8
0
100
AcDbLine
10
260
20
-25
30
0
11
260
21
-30
31
0
0
CIRCLE
5
347
100
AcDbEntity
8
0
100
AcDbCircle
10
300.00000163912773
20
-5.000000074505806
30
0
40
1.0000000000000009
210
0
220
0
230
1
0
LINE
5
348
100
AcDbEntity
8
0
100
AcDbLine
10
276.00000110268593
20
-7.0433935446904261
30
0
11
264.00000110268593
21
-7.0433935446904261
31
0
0
LINE
5
349
100
AcDbEntity
8
0
100
AcDbLine
10
276.00000110268593
20
-67.000000655651093
30
0
11
264.00000110268593
21
-67.000000655651093
31
0
0
CIRCLE
5
350
100
AcDbEntity
8
0
100
AcDbCircle
10
285.00000141561031
20
-5.000000074505806
30
0
40
0.99999999999999645
210
0
220
0
230
1
0
LINE
5
351
100
AcDbEntity
8
0
100
AcDbLine
10
280
20
-25
30
0
11
280
21
-30
31
0
0
LINE
5
352
100
AcDbEntity
8
0
100
AcDbLine
10
295.00000156462193
20
-25
30
0
11
305.00000171363354
21
-25
31
0
0
LINE
5
353
100
AcDbEntity
8
0
100
AcDbLine
10
276.00000110268593
20
-7.0433935446904261
30
0
11
276.00000110268593
21
-25
31
0
0
CIRCLE
5
354
100
AcDbEntity
8
0
100
AcDbCircle
10
245
20
-20
30
0
40
0.99999999999999911
210
0
220
0
230
1
0
LINE
5
355
100
AcDbEntity
8
0
100
AcDbLine
10
240
20
-25
30
0
11
245
21
-25
31
0
0
LINE
5
356
100
AcDbEntity
8
0
100
AcDbLine
10
260
20
-25
30
0
11
264.00000110268593
21
-25
31
0
0
CIRCLE
5
357
100
AcDbEntity
8
0
100
AcDbCircle
10
330.00000207197155
20
-69.650000944826743
30
0
40
1.0999999999999963
210
0
220
0
230
1
0
CIRCLE
5
358
100
AcDbEntity
8
0
100
AcDbCircle
10
270.00000110268593
20
-41.350000655651094
30
0
40
1.0999999999999976
210
0
220
0
230
1
0
LINE
5
359
100
AcDbEntity
8
0
100
AcDbLine
10
319.99999998203606
20
44.999999705469079
30
0
11
324.00000199675532
21
44.999999705469094
31
0
0
CIRCLE
5
360
100
AcDbEntity
8
0
100
AcDbCircle
10
300.00000163912773
20
-20.000000298023224
30
0
40
1.0000000000000009
210
0
220
0
230
1
0
LINE
5
361
100
AcDbEntity
8
0
100
AcDbLine
10
295.00000156462193
20
-30
30
0
11
280
21
-30
31
0
0
LINE
5
362
100
AcDbEntity
8
0
100
AcDbLine
10
336.00000217556953
20
24.99999970546909
30
0
11
324.00000199675532
21
24.99999970546909
31
0
0
LINE
5
363
100
AcDbEntity
8
0
100
AcDbLine
10
340
20
50.000000915854145
30
0
11
340
21
44.999999705469065
31
0
0
CIRCLE
5
364
100
AcDbEntity
8
0
100
AcDbCircle
10
315.00000186264515
20
25.00000037252903
30
0
40
0.99999999999999645
210
0
220
0
230
1
0
CIRCLE
5
365
100
AcDbEntity
8
0
100
AcDbCircle
10
260
20
-20
30
0
40
1.0000000000000004
210
0
220
0
230
1
0
LINE
5
366
100
AcDbEntity
8
0
100
AcDbLine
10
305.00000171363354
20
-25
30
0
11
305.00000171363354
21
-30
31
0
0
ARC
5
367
100
AcDbEntity
8
0
100
AcDbCircle
10
402.5
20
-124.00000186264514
30
0
40
1.0000000000000142
210
0
220
0
230
1
100
AcDbArc
50
270
51
360
0
LINE
5
368
100
AcDbEntity
8
0
100
AcDbLine
10
324.00000199675532
20
44.999999705469094
30
0
11
324
21
30
31
0
0
LINE
5
369
100
AcDbEntity
8
0
100
AcDbLine
10
324.00000199675532
20
24.99999970546909
30
0
11
324.00000199675532
21
44.999999705469094
31
0
0
CIRCLE
5
370
100
AcDbEntity
8
0
100
AcDbCircle
10
320
20
40
30
0
40
1.0000000000000004
210
0
220
0
230
1
0
LINE
5
371
100
AcDbEntity
8
0
100
AcDbLine
10
388.5
20
-100
30
0
11
402.5
21
-100
31
0
0
CIRCLE
5
372
100
AcDbEntity
8
0
100
AcDbCircle
10
391.5
20
-112.5
30
0
40
0.50000000000001177
210
0
220
0
230
1
0
CIRCLE
5
373
100
AcDbEntity
8
0
100
AcDbCircle
10
389.5
20
-112.5
30
0
40
0.50000000000000477
210
0
220
0
230
1
0
LWPOLYLINE
5
374
100
AcDbEntity
8
0
100
AcDbPolyline
90
4
70
1
43
0.0
10
360.65000081956384
20
-118.50000158697367
10
337.65000081956384
20
-118.50000158697367
10
337.65000081956384
20
-106.50000158697367
10
360.65000081956384
20
-106.50000158697367
0
LWPOLYLINE
5
375
100
AcDbEntity
8
0
100
AcDbPolyline
90
7
70
1
43
0.0
10
368.5
20
-160
10
335.00000081956387
20
-160.00000238418579
42
-0.23606797749978972
10
330.00000074505806
20
-145.0000021606684
42
-0.32046505340852538
10
335.00000081956387
20
-135.00000201165676
10
368.5
20
-135.00000000000003
42
-0.41421356237309503
10
370
20
-136.5
10
370
20
-158.5
42
-0.41421356237309503
0
LINE
5
376
100
AcDbEntity
8
0
100
AcDbLine
10
319.99999998203606
20
44.999999705469079
30
0
11
319.99999998203606
21
49.999999705469065
31
0
0
LINE
5
377
100
AcDbEntity
8
0
100
AcDbLine
10
388.5
20
-125
30
0
11
331.5
21
-125
31
0
0
CIRCLE
5
378
100
AcDbEntity
8
0
100
AcDbCircle
10
387.5
20
-112.5
30
0
40
0.49999999999999034
210
0
220
0
230
1
0
CIRCLE
5
379
100
AcDbEntity
8
0
100
AcDbCircle
10
385.50000000000006
20
-112.5
30
0
40
0.50000000000000178
210
0
220
0
230
1
0
LINE
5
380
100
AcDbEntity
8
0
100
AcDbLine
10
360
20
44.999999705469087
30
0
11
355
21
44.999999705469087
31
0
0
ARC
5
381
100
AcDbEntity
8
0
100
AcDbCircle
10
331.50000000000006
20
-101.5
30
0
40
1.5000000000000036
210
0
220
0
230
1
100
AcDbArc
50
90.000000000002174
51
180
0
CIRCLE
5
382
100
AcDbEntity
8
0
100
AcDbCircle
10
385.50000000000006
20
-112.5
30
0
40
0.50000000000000178
210
0
220
0
230
1
0
CIRCLE
5
383
100
AcDbEntity
8
0
100
AcDbCircle
10
396
20
-112.5
30
0
40
3.4999999999999973
210
0
220
0
230
1
0
CIRCLE
5
384
100
AcDbEntity
8
0
100
AcDbCircle
10
389.5
20
-112.5
30
0
40
0.50000000000000477
210
0
220
0
230
1
0
CIRCLE
5
385
100
AcDbEntity
8
0
100
AcDbCircle
10
350
20
-147.5
30
0
40
0.25000000000000488
210
0
220
0
230
1
0
CIRCLE
5
386
100
AcDbEntity
8
0
100
AcDbCircle
10
352
20
-147.5
30
0
40
0.50000000000000178
210
0
220
0
230
1
0
CIRCLE
5
387
100
AcDbEntity
8
0
100
AcDbCircle
10
362.5
20
-147.5
30
0
40
3.4999999999999973
210
0
220
0
230
1
0
CIRCLE
5
388
100
AcDbEntity
8
0
100
AcDbCircle
10
352
20
-147.5
30
0
40
0.50000000000000178
210
0
220
0
230
1
0
CIRCLE
5
389
100
AcDbEntity
8
0
100
AcDbCircle
10
358
20
-147.5
30
0
40
0.50000000000001177
210
0
220
0
230
1
0
CIRCLE
5
390
100
AcDbEntity
8
0
100
AcDbCircle
10
354.00000000000006
20
-147.5
30
0
40
0.49999999999999034
210
0
220
0
230
1
0
LINE
5
391
100
AcDbEntity
8
0
100
AcDbLine
10
337.65000081956384
20
-118.50000158697367
30
0
11
337.65000081956384
21
-106.50000158697367
31
0
0
ARC
5
392
100
AcDbEntity
8
0
100
AcDbCircle
10
331.50000000000006
20
-123.5
30
0
40
1.5000000000000568
210
0
220
0
230
1
100
AcDbArc
50
180
51
269.99999999999784
0
CIRCLE
5
393
100
AcDbEntity
8
0
100
AcDbCircle
10
363.30000081956382
20
-112.50000158697367
30
0
40
1.1000000000000012
210
0
220
0
230
1
0
CIRCLE
5
394
100
AcDbEntity
8
0
100
AcDbCircle
10
362.5
20
-147.5
30
0
40
3.4999999999999973
210
0
220
0
230
1
0
CIRCLE
5
395
100
AcDbEntity
8
0
100
AcDbCircle
10
356
20
-147.5
30
0
40
0.50000000000000477
210
0
220
0
230
1
0
ARC
5
396
100
AcDbEntity
8
0
100
AcDbCircle
10
402.5
20
-101.00000000000001
30
0
40
1.0000000000000142
210
0
220
-0
230
1
100
AcDbArc
50
0
51
90
0
LWPOLYLINE
5
397
100
AcDbEntity
8
0
100
AcDbPolyline
90
2
70
1
43
0.0
10
360
20
-25
10
360
20
44.999999705469087
0
CIRCLE
5
398
100
AcDbEntity
8
0
100
AcDbCircle
10
391.5
20
-112.5
30
0
40
0.50000000000001177
210
0
220
0
230
1
0
LINE
5
399
100
AcDbEntity
8
0
100
AcDbLine
10
330
20
-123.5
30
0
11
330
21
-101.5
31
0
0
LINE
5
400
100
AcDbEntity
8
0
100
AcDbLine
10
403.5
20
-101
30
0
11
403.5
21
-124.00000186264515
31
0
0
CIRCLE
5
401
100
AcDbEntity
8
0
100
AcDbCircle
10
350
20
-147.5
30
0
40
0.25000000000000488
210
0
220
0
230
1
0
CIRCLE
5
402
100
AcDbEntity
8
0
100
AcDbCircle
10
396
20
-112.5
30
0
40
3.4999999999999973
210
0
220
0
230
1
0
CIRCLE
5
403
100
AcDbEntity
8
0
100
AcDbCircle
10
383.5
20
-112.5
30
0
40
0.25000000000000488
210
0
220
0
230
1
0
LINE
5
404
100
AcDbEntity
8
0
100
AcDbLine
10
402.5
20
-125.00000186264515
30
0
11
388.00000160932541
21
-125.00000186264515
31
0
0
CIRCLE
5
405
100
AcDbEntity
8
0
100
AcDbCircle
10
356
20
-147.5
30
0
40
0.50000000000000477
210
0
220
0
230
1
0
CIRCLE
5
406
100
AcDbEntity
8
0
100
AcDbCircle
10
354.00000000000006
20
-147.5
30
0
40
0.49999999999999034
210
0
220
0
230
1
0
ARC
5
407
100
AcDbEntity
8
0
100
AcDbCircle
10
312.5
20
-124.00000186264515
30
0
40
0.99999999999999645
210
-0
220
0
230
1
100
AcDbArc
50
-90
51
0
0
CIRCLE
5
408
100
AcDbEntity
8
0
100
AcDbCircle
10
335.00000081956387
20
-112.50000158697367
30
0
40
1.1000000000000012
210
0
220
0
230
1
0
LINE
5
409
100
AcDbEntity
8
0
100
AcDbLine
10
313.5
20
-101
30
0
11
313.5
21
-124.00000186264515
31
0
0
CIRCLE
5
410
100
AcDbEntity
8
0
100
AcDbCircle
10
306
20
-112.5
30
0
40
3.4999999999999973
210
0
220
0
230
1
0
ARC
5
411
100
AcDbEntity
8
0
100
AcDbCircle
10
312.5
20
-101
30
0
40
1.0000000000000142
210
0
220
-0
230
1
100
AcDbArc
50
0
51
90
0
CIRCLE
5
412
100
AcDbEntity
8
0
100
AcDbCircle
10
383.5
20
-112.5
30
0
40
0.25000000000000488
210
0
220
0
230
1
0
CIRCLE
5
413
100
AcDbEntity
8
0
100
AcDbCircle
10
306
20
-112.5
30
0
40
3.4999999999999973
210
0
220
0
230
1
0
CIRCLE
5
414
100
AcDbEntity
8
0
100
AcDbCircle
10
358
20
-147.5
30
0
40
0.50000000000001177
210
0
220
0
230
1
0
CIRCLE
5
415
100
AcDbEntity
8
0
100
AcDbCircle
10
387.5
20
-112.5
30
0
40
0.49999999999999034
210
0
220
0
230
1
0
ENDSEC
0
SECTION
2
OBJECTS
0
DICTIONARY
5
C
100
AcDbDictionary
3
ACAD_GROUP
350
D
3
ACAD_MLINESTYLE
350
17
0
DICTIONARY
5
D
100
AcDbDictionary
0
DICTIONARY
5
1A
330
C
100
AcDbDictionary
0
DICTIONARY
5
17
100
AcDbDictionary
0
ENDSEC
0
EOF
